<svg xmlns="http://www.w3.org/2000/svg" viewBox="0 0 100 100" width="100" height="100">
  <defs>
    <linearGradient id="bg" x1="0%" y1="0%" x2="100%" y2="100%">
      <stop offset="0%" stop-color="#1A1F2B"></stop>
      <stop offset="100%" stop-color="#141823"></stop>
    </linearGradient>
  </defs>
  <rect width="100" height="100" rx="26" fill="url(#bg)"></rect>
  <g transform="translate(50 50) scale(0.82) translate(-50 -50)">
    <g transform="translate(0 100) scale(1 -1)">
      <g stroke="#6E94AC" stroke-width="0.6" stroke-opacity="0.5" fill="none">
        <line x1="50" y1="86" x2="50" y2="72"></line>
        <line x1="50" y1="72" x2="34" y2="57"></line>
        <line x1="50" y1="72" x2="66" y2="57"></line>
        <line x1="50" y1="72" x2="42" y2="48"></line>
        <line x1="50" y1="72" x2="58" y2="48"></line>
        <line x1="34" y1="57" x2="20" y2="44"></line>
        <line x1="34" y1="57" x2="38" y2="63"></line>
        <line x1="20" y1="44" x2="26" y2="32"></line>
        <line x1="20" y1="44" x2="17" y2="40"></line>
        <line x1="26" y1="32" x2="13" y2="26"></line>
        <line x1="26" y1="32" x2="30" y2="20"></line>
        <line x1="66" y1="57" x2="80" y2="44"></line>
        <line x1="66" y1="57" x2="62" y2="63"></line>
        <line x1="80" y1="44" x2="74" y2="32"></line>
        <line x1="80" y1="44" x2="83" y2="40"></line>
        <line x1="74" y1="32" x2="87" y2="26"></line>
        <line x1="74" y1="32" x2="70" y2="20"></line>
      </g>
      <g fill="#9AC4D8">
        <circle cx="50" cy="86" r="1.7"></circle>
        <circle cx="50" cy="72" r="1.3"></circle>
        <circle cx="34" cy="57" r="1.2"></circle>
        <circle cx="20" cy="44" r="1.0"></circle>
        <circle cx="26" cy="32" r="0.9"></circle>
        <circle cx="13" cy="26" r="0.8"></circle>
        <circle cx="30" cy="20" r="0.7"></circle>
        <circle cx="17" cy="40" r="0.8"></circle>
        <circle cx="66" cy="57" r="1.2"></circle>
        <circle cx="80" cy="44" r="1.0"></circle>
        <circle cx="74" cy="32" r="0.9"></circle>
        <circle cx="87" cy="26" r="0.8"></circle>
        <circle cx="70" cy="20" r="0.7"></circle>
        <circle cx="83" cy="40" r="0.8"></circle>
        <circle cx="38" cy="63" r="0.7"></circle>
        <circle cx="62" cy="63" r="0.7"></circle>
        <circle cx="42" cy="48" r="0.65"></circle>
        <circle cx="58" cy="48" r="0.65"></circle>
      </g>
      <circle cx="50" cy="72" r="4.5" fill="none" stroke="#8CC6BA" stroke-width="0.7" stroke-opacity="0.55"></circle>
    </g>
  </g>
</svg>